<svg width="50" height="50" viewBox="0 0 50 50" fill="none" xmlns="http://www.w3.org/2000/svg">
<path d="M16.25 4.1665H33.75C40.4167 4.1665 45.8333 9.58317 45.8333 16.2498V33.7498C45.8333 36.9545 44.5603 40.028 42.2942 42.294C40.0281 44.5601 36.9547 45.8332 33.75 45.8332H16.25C9.58334 45.8332 4.16667 40.4165 4.16667 33.7498V16.2498C4.16667 13.0451 5.43973 9.9717 7.70579 7.70563C9.97186 5.43957 13.0453 4.1665 16.25 4.1665ZM15.8333 8.33317C13.8442 8.33317 11.9366 9.12335 10.53 10.5299C9.12351 11.9364 8.33333 13.844 8.33333 15.8332V34.1665C8.33333 38.3123 11.6875 41.6665 15.8333 41.6665H34.1667C36.1558 41.6665 38.0634 40.8763 39.47 39.4698C40.8765 38.0633 41.6667 36.1556 41.6667 34.1665V15.8332C41.6667 11.6873 38.3125 8.33317 34.1667 8.33317H15.8333ZM35.9375 11.4582C36.6282 11.4582 37.2906 11.7325 37.7789 12.2209C38.2673 12.7093 38.5417 13.3717 38.5417 14.0623C38.5417 14.753 38.2673 15.4154 37.7789 15.9038C37.2906 16.3921 36.6282 16.6665 35.9375 16.6665C35.2468 16.6665 34.5845 16.3921 34.0961 15.9038C33.6077 15.4154 33.3333 14.753 33.3333 14.0623C33.3333 13.3717 33.6077 12.7093 34.0961 12.2209C34.5845 11.7325 35.2468 11.4582 35.9375 11.4582ZM25 14.5832C27.7627 14.5832 30.4122 15.6806 32.3657 17.6341C34.3192 19.5876 35.4167 22.2372 35.4167 24.9998C35.4167 27.7625 34.3192 30.412 32.3657 32.3655C30.4122 34.319 27.7627 35.4165 25 35.4165C22.2373 35.4165 19.5878 34.319 17.6343 32.3655C15.6808 30.412 14.5833 27.7625 14.5833 24.9998C14.5833 22.2372 15.6808 19.5876 17.6343 17.6341C19.5878 15.6806 22.2373 14.5832 25 14.5832ZM25 18.7498C23.3424 18.7498 21.7527 19.4083 20.5806 20.5804C19.4085 21.7525 18.75 23.3422 18.75 24.9998C18.75 26.6574 19.4085 28.2472 20.5806 29.4193C21.7527 30.5914 23.3424 31.2498 25 31.2498C26.6576 31.2498 28.2473 30.5914 29.4194 29.4193C30.5915 28.2472 31.25 26.6574 31.25 24.9998C31.25 23.3422 30.5915 21.7525 29.4194 20.5804C28.2473 19.4083 26.6576 18.7498 25 18.7498Z" fill="white"/>
</svg>
