<svg width="37" height="36" viewBox="0 0 37 36" fill="none" xmlns="http://www.w3.org/2000/svg">
<path d="M3.23584 3.0752H6.23584L10.2258 21.7052C10.3722 22.3875 10.7518 22.9974 11.2994 23.43C11.847 23.8626 12.5282 24.0907 13.2258 24.0752H27.8958C28.5786 24.0741 29.2406 23.8401 29.7724 23.4119C30.3042 22.9838 30.674 22.387 30.8208 21.7202L33.2958 10.5752H7.84084M13.6608 31.5002C13.6608 32.3286 12.9893 33.0002 12.1608 33.0002C11.3324 33.0002 10.6608 32.3286 10.6608 31.5002C10.6608 30.6718 11.3324 30.0002 12.1608 30.0002C12.9893 30.0002 13.6608 30.6718 13.6608 31.5002ZM30.1608 31.5002C30.1608 32.3286 29.4893 33.0002 28.6608 33.0002C27.8324 33.0002 27.1608 32.3286 27.1608 31.5002C27.1608 30.6718 27.8324 30.0002 28.6608 30.0002C29.4893 30.0002 30.1608 30.6718 30.1608 31.5002Z" stroke="#922417" stroke-width="2" stroke-linecap="round" stroke-linejoin="round"/>
</svg>
