<svg width="45" height="45" viewBox="0 0 45 45" fill="none" xmlns="http://www.w3.org/2000/svg">
<path d="M29.8894 33.6806C30.3206 30.1575 28.0519 27.9113 22.0612 25.9988C19.1587 25.0088 17.7919 23.7113 17.8237 21.9281C17.9456 19.9481 19.7887 18.5063 22.2337 18.4594C24.1594 18.4791 26.0377 19.0589 27.6394 20.1281C27.8569 20.2631 28.0087 20.2406 28.1325 20.0531C28.3012 19.7831 28.7231 19.1287 28.8637 18.8906C28.9594 18.7406 28.9781 18.5419 28.7362 18.3656C28.3894 18.1087 27.4163 17.5875 26.8931 17.3681C25.4037 16.7361 23.8029 16.4084 22.185 16.4044C18.6037 16.4194 15.7856 18.6825 15.5475 21.7031C15.3956 23.8837 16.4756 25.6538 18.7913 27.0037C19.2844 27.2888 21.9412 28.3462 22.9987 28.6762C26.325 29.7113 28.0519 31.5675 27.645 33.7331C27.2756 35.6962 25.2094 36.9656 22.3612 37.0031C20.1056 36.9169 18.0731 35.9963 16.4981 34.7719L16.2337 34.5656C16.0387 34.4156 15.825 34.425 15.6956 34.6219C15.6019 34.7663 14.9906 35.6475 14.8369 35.8781C14.6925 36.0806 14.7712 36.1931 14.9212 36.3169C15.5775 36.8662 16.4531 37.4662 17.0475 37.77C18.6941 38.6084 20.5051 39.0738 22.3519 39.1331C23.6815 39.196 25.0089 38.9696 26.2425 38.4694C28.2956 37.5975 29.6231 35.8556 29.8894 33.6806ZM22.5 2.62687C18.6225 2.62687 15.4612 6.28312 15.3131 10.8581H29.685C29.5331 6.28125 26.3737 2.625 22.5 2.625M37.2206 44.9963L37.0706 44.9981L7.47562 44.9944C5.46187 44.9194 3.9825 43.2881 3.78 41.2612L3.76125 40.8956L2.43562 11.7844C2.42666 11.6674 2.44172 11.5498 2.47988 11.4388C2.51803 11.3278 2.57848 11.2258 2.65751 11.1391C2.73653 11.0523 2.83246 10.9826 2.93941 10.9343C3.04635 10.886 3.16204 10.8601 3.27937 10.8581H12.6075C12.8344 4.815 17.175 0 22.5 0C27.8212 0 32.1619 4.81687 32.3906 10.8562H41.7056C41.8224 10.8563 41.9379 10.8802 42.0451 10.9263C42.1524 10.9725 42.2491 11.04 42.3294 11.1247C42.4098 11.2094 42.472 11.3096 42.5124 11.4191C42.5528 11.5287 42.5705 11.6453 42.5644 11.7619L41.115 40.9894L41.1019 41.235C40.9256 43.2863 39.2662 44.9419 37.2206 44.9963Z" fill="white"/>
</svg>
