<svg width="50" height="50" viewBox="0 0 50 50" fill="none" xmlns="http://www.w3.org/2000/svg">
<path d="M34.5833 12.125C33.1592 10.4992 32.3744 8.41132 32.375 6.25H25.9375V32.0833C25.8878 33.4813 25.2976 34.8055 24.2912 35.777C23.2847 36.7484 21.9405 37.2915 20.5417 37.2917C17.5833 37.2917 15.125 34.875 15.125 31.875C15.125 28.2917 18.5833 25.6042 22.1458 26.7083V20.125C14.9583 19.1667 8.66666 24.75 8.66666 31.875C8.66666 38.8125 14.4167 43.75 20.5208 43.75C27.0625 43.75 32.375 38.4375 32.375 31.875V18.7708C34.9854 20.6455 38.1195 21.6513 41.3333 21.6458V15.2083C41.3333 15.2083 37.4167 15.3958 34.5833 12.125Z" fill="white"/>
</svg>
